<?xml version="1.0"?>
<svg xmlns="http://www.w3.org/2000/svg" xmlns:xlink="http://www.w3.org/1999/xlink" xmlns:svgjs="http://svgjs.com/svgjs" version="1.1" width="512" height="512" x="0" y="0" viewBox="0 0 512 512" style="enable-background:new 0 0 512 512" xml:space="preserve" class=""><g><linearGradient xmlns="http://www.w3.org/2000/svg" id="SVGID_1_" gradientTransform="matrix(1 0 0 -1 0 514)" gradientUnits="userSpaceOnUse" x1="0" x2="512" y1="258" y2="258"><stop stop-opacity="1" stop-color="#d2deff" offset="0"/><stop stop-opacity="1" stop-color="#e8e9eb" offset="0"/><stop stop-opacity="1" stop-color="#e8e9eb" offset="1"/></linearGradient><g xmlns="http://www.w3.org/2000/svg"><path d="m20.336 133.512c-23.967 39.398-26.493 107.613-8.937 150.256 15.377 37.351 45.966 72.409 86.12 76.801 14.766 1.615 29.858-1.024 44.472 1.638 50.257 9.152 68.952 71.09 108.01 104.014 27.182 22.913 64.898 31.021 100.174 26.607s68.302-20.363 97.376-40.824c22.957-16.157 44.436-36.022 55.764-61.707 23.744-53.839-4.19-118.501-47.587-158.239-13.517-12.377-28.582-23.294-39.875-37.727-11.293-14.434-18.48-33.695-13.099-51.214 4.293-13.977 15.849-24.812 20.227-38.763 5.958-18.984-3.035-40.281-17.802-53.616s-34.308-20.039-53.666-24.64c-81.102-19.281-258.822-11.524-331.177 107.414z" fill="url(#SVGID_1_)" data-original="url(#SVGID_1_)" style=""/><g><g enable-background="new" opacity=".2"><path d="m401.918 104.784h-276.462c-5.523 0-10 4.477-10 10v29.112c0 5.523 4.477 10 10 10h5.335l2.446 21.114 24.665 213.056c-15.713-2.578-36.906 5.852-54.138 23.083-23.325 23.325-30.546 53.92-16.13 68.336 11.28 11.28 32.464 9.311 52.32-3.251 10.79 6.597 25.622 10.674 41.998 10.674 26.315 0 48.638-10.523 56.598-25.128h104.566c10.16 0 18.7-7.61 19.87-17.7l31.15-269.07 2.446-21.114h5.335c5.523 0 10-4.477 10-10v-29.112c.001-5.523-4.476-10-9.999-10z" fill="#3d4a5a" data-original="#6583fe" style="" class=""/></g><g><g><g><path d="m391.723 109.34h-256.071v-44.5c0-5.523 4.477-10 10-10h236.071c5.523 0 10 4.477 10 10z" fill="#ffffff" data-original="#ffffff" style="" class=""/></g><g><path d="m400.94 96.31-3.7 31.93-3.1 26.77-8.1 69.94-23.05 199.13c-1.17 10.09-9.71 17.7-19.87 17.7h-158.86c-10.16 0-18.7-7.61-19.87-17.7l-31.15-269.07-6.8-58.7z" fill="#ffffff" data-original="#ffffff" style="" class=""/></g><g><path d="m385.947 225.78-17.14 148h-210.24l-17.14-148z" fill="#3d4a5a" data-original="#02ffb3" style="" class=""/></g><g><path d="m385.947 225.78-17.14 148h-210.24l-17.14-148z" fill="#3d4a5a" data-original="#6583fe" style="" class=""/></g><g><g><g><path d="m212.397 267.28c0 2.76-2.24 5-5 5h-60.58l-1.16-10h61.74c2.76 0 5 2.24 5 5z" fill="#1d1f33" data-original="#2626bc" style="" class=""/></g></g><g><g><path d="m182.397 287.89c0 2.76-2.24 5-5 5h-28.2l-1.16-10h29.36c2.76 0 5 2.24 5 5z" fill="#1d1f33" data-original="#2626bc" style="" class=""/></g></g><g><g><path d="m182.397 306.68c0 2.76-2.24 5-5 5h-26.02l-1.16-10h27.18c2.76 0 5 2.24 5 5z" fill="#1d1f33" data-original="#2626bc" style="" class=""/></g></g></g><g><g><g><g><ellipse cx="181.953" cy="429.993" fill="#3d4a5a" rx="59.727" ry="36.915" data-original="#6583fe" style="" class=""/></g><g><path d="m181.953 393.078c32.985 0 59.727 16.527 59.727 36.915 0 1.095-.077 2.174-.231 3.245-11.714-.081-11.791-6.491-23.66-6.491-11.945 0-11.945 6.491-23.891 6.491-11.945 0-11.945-6.491-23.891-6.491-11.945 0-11.945 6.491-23.891 6.491-11.868 0-11.945-6.409-23.659-6.491 2.659-18.871 28.284-33.669 59.496-33.669z" fill="#ffffff" data-original="#ffffff" style="" class=""/></g></g></g><g><g><g><ellipse cx="129.809" cy="417.221" fill="#3d4a5a" rx="59.718" ry="36.909" transform="matrix(.707 -.707 .707 .707 -257 213.99)" data-original="#6583fe" style="" class=""/></g><g><path d="m103.765 391.149c23.324-23.324 53.919-30.547 68.336-16.13.774.774 1.483 1.592 2.131 2.458-8.341 8.226-12.927 3.748-21.319 12.14-8.447 8.447-3.857 13.036-12.304 21.483s-13.036 3.857-21.483 12.304-3.857 13.036-12.304 21.483c-8.392 8.392-12.979 3.914-21.319 12.14-11.464-15.224-3.809-43.807 18.262-65.878z" fill="#ffffff" data-original="#ffffff" style="" class=""/></g></g></g></g><g><path d="m401.918 133.896h-276.462c-5.523 0-10-4.477-10-10v-29.112c0-5.523 4.477-10 10-10h276.462c5.523 0 10 4.477 10 10v29.112c0 5.523-4.477 10-10 10z" fill="#ffffff" data-original="#ffffff" style="" class=""/></g><g><g><g><ellipse cx="280.102" cy="298.743" fill="#ffffff" rx="49.796" ry="30.777" transform="matrix(.707 -.707 .707 .707 -129.203 285.562)" data-original="#ffffff" style="" class=""/></g><g><path d="m261.626 345.2c-7.967 0-15.06-2.5-20.271-7.711-14.185-14.186-8.278-42.317 13.449-64.045 21.727-21.728 49.857-27.635 64.045-13.448 14.185 14.187 8.277 42.318-13.449 64.045-13.746 13.745-30.055 21.159-43.774 21.159zm.248-64.685c-17.17 17.17-23.329 40.024-13.449 49.904 9.88 9.881 32.734 3.724 49.904-13.448 17.171-17.17 23.329-40.023 13.449-49.904-9.882-9.881-32.734-3.722-49.904 13.448z" fill="#1d1f33" data-original="#2626bc" style="" class=""/></g><g><path d="m258.398 276.979c19.449-19.449 44.961-25.472 56.983-13.45.646.646 1.237 1.327 1.777 2.05-6.955 6.859-10.78 3.125-17.777 10.123-7.043 7.043-3.216 10.87-10.26 17.914-7.043 7.043-10.87 3.216-17.914 10.26-7.043 7.043-3.216 10.87-10.26 17.914-6.998 6.998-10.822 3.264-17.777 10.123-9.559-12.696-3.176-36.53 15.228-54.934z" fill="#ffffff" data-original="#ffffff" style="" class=""/></g><g><path d="m242.612 339.485-3.437-4.564c-11.212-14.893-4.468-41.322 15.688-61.478 10.054-10.055 22.009-17.106 33.664-19.857 12.514-2.952 23.306-.678 30.391 6.408.809.808 1.565 1.681 2.246 2.592l2.61 3.492-3.104 3.062c-4.347 4.286-7.987 5.362-10.913 6.228-2.448.725-4.217 1.247-6.839 3.87-2.623 2.623-3.146 4.392-3.871 6.84-.877 2.965-1.969 6.654-6.39 11.074-4.42 4.42-8.108 5.512-11.073 6.389-2.448.725-4.217 1.248-6.841 3.871-2.622 2.623-3.146 4.392-3.87 6.84-.877 2.965-1.969 6.654-6.39 11.074-4.42 4.421-8.11 5.512-11.075 6.389-2.417.715-4.164 1.231-6.727 3.759zm56.131-77.155c-2.463 0-5.116.327-7.92.988-9.871 2.33-20.131 8.438-28.89 17.195-14.33 14.331-21.088 32.395-17.133 43.893 2.161-1.214 4.085-1.783 5.771-2.282 2.448-.724 4.217-1.247 6.84-3.869 2.623-2.624 3.146-4.393 3.871-6.841.877-2.965 1.969-6.653 6.389-11.073 4.42-4.421 8.109-5.513 11.074-6.39 2.448-.725 4.217-1.248 6.84-3.87 2.623-2.624 3.146-4.393 3.871-6.841.877-2.965 1.969-6.653 6.389-11.073 4.42-4.421 8.109-5.513 11.074-6.389.84-.249 1.598-.473 2.337-.766-2.848-1.777-6.416-2.682-10.513-2.682z" fill="#1d1f33" data-original="#2626bc" style="" class=""/></g></g></g></g><g><g><path d="m88.398 347.912c-2.761 0-5-2.238-5-5 0-3.309-2.691-6-6-6-2.761 0-5-2.238-5-5s2.239-5 5-5c3.309 0 6-2.691 6-6 0-2.762 2.239-5 5-5s5 2.238 5 5c0 3.309 2.691 6 6 6 2.761 0 5 2.238 5 5s-2.239 5-5 5c-3.309 0-6 2.691-6 6 0 2.762-2.238 5-5 5z" fill="#3d4a5a" data-original="#6583fe" style="" class=""/></g><g><path d="m416.935 298.371c-2.761 0-5-2.238-5-5 0-3.309-2.691-6-6-6-2.761 0-5-2.238-5-5s2.239-5 5-5c3.309 0 6-2.691 6-6 0-2.762 2.239-5 5-5s5 2.238 5 5c0 3.309 2.691 6 6 6 2.761 0 5 2.238 5 5s-2.239 5-5 5c-3.309 0-6 2.691-6 6 0 2.762-2.239 5-5 5z" fill="#3d4a5a" data-original="#6583fe" style="" class=""/></g><g><path d="m104.065 282.28c-1.28 0-2.559-.488-3.536-1.465-1.953-1.952-1.953-5.118 0-7.07l10-10c1.953-1.953 5.118-1.953 7.071 0 1.953 1.952 1.953 5.118 0 7.07l-10 10c-.976.977-2.255 1.465-3.535 1.465z" fill="#3d4a5a" data-original="#6583fe" style="" class=""/></g><g><path d="m424.602 230.497c-1.28 0-2.559-.488-3.536-1.465-1.953-1.952-1.953-5.118 0-7.07l10-10c1.953-1.953 5.118-1.953 7.071 0 1.953 1.952 1.953 5.118 0 7.07l-10 10c-.976.977-2.256 1.465-3.535 1.465z" fill="#3d4a5a" data-original="#6583fe" style="" class=""/></g></g></g></g><g><path d="m103.792 52.092c-2.761 0-5-2.238-5-5 0-3.309-2.691-6-6-6-2.761 0-5-2.238-5-5s2.239-5 5-5c3.309 0 6-2.691 6-6 0-2.762 2.239-5 5-5s5 2.238 5 5c0 3.309 2.691 6 6 6 2.761 0 5 2.238 5 5s-2.239 5-5 5c-3.309 0-6 2.691-6 6 0 2.761-2.238 5-5 5z" fill="#3d4a5a" data-original="#6583fe" style="" class=""/></g><g><g><path d="m431.018 162.762c1.925-30.06-22.863-54.848-52.922-52.922-24.34 1.559-44.226 21.004-46.29 45.306-1.001 11.788 2.122 22.803 8.072 31.781l-6.986 15.866c-1.443 3.277 1.896 6.616 5.173 5.173l15.866-6.986c8.978 5.95 19.993 9.073 31.781 8.072 24.302-2.063 43.747-21.949 45.306-46.29z" fill="#3d4a5a" data-original="#6583fe" style="" class=""/></g><g><path d="m420.087 120.772c-1.018-1.018-2.083-1.975-3.169-2.902v-23.086c0-8.272-6.729-15-15-15h-5.195v-14.943c0-8.271-6.729-15-15-15h-236.071c-8.271 0-15 6.729-15 15v14.943h-5.196c-8.271 0-15 6.728-15 15v29.112c0 8.271 6.729 15 15 15h.881l23.323 201.443c.295 2.548 2.456 4.425 4.96 4.425.192 0 .386-.011.581-.033 2.743-.317 4.709-2.799 4.392-5.542l-23.19-200.293h194.252c-2.033 4.964-3.362 10.279-3.833 15.827-.982 11.567 1.575 22.783 7.41 32.614l-5.918 13.44c-1.495 3.396-.766 7.283 1.857 9.907 2.622 2.622 6.511 3.354 9.907 1.857l13.441-5.919c8.46 5.021 17.945 7.615 27.798 7.615.31 0 .621-.015.932-.02l-24.232 209.29c-.876 7.568-7.282 13.275-14.901 13.275h-97.264c.541-2.22.827-4.488.827-6.792 0-11.658-7.055-22.438-19.865-30.356-11.581-7.157-26.735-11.216-42.857-11.528-1.126-6.551-3.913-12.216-8.321-16.624-8.244-8.243-20.854-10.876-35.512-7.419-13.799 3.257-27.967 11.62-39.896 23.549-11.928 11.931-20.291 26.099-23.547 39.898-3.459 14.656-.825 27.268 7.418 35.511 5.876 5.877 13.973 8.903 23.448 8.903 3.816 0 7.855-.49 12.064-1.483 6.823-1.611 13.735-4.474 20.424-8.395 11.649 6.361 26.471 9.863 41.919 9.863 16.87 0 32.802-4.105 44.862-11.559 6.316-3.904 11.226-8.506 14.588-13.564h101.713c12.698 0 23.374-9.512 24.835-22.125l24.494-211.556c23.712-4.894 41.984-25.389 43.562-50.023 1.009-15.761-4.794-31.183-15.921-42.31zm-302.774 339.935c-11.159 2.635-20.443.943-26.143-4.757-5.702-5.701-7.391-14.986-4.757-26.144 2.836-12.015 10.254-24.488 20.887-35.122 10.633-10.633 23.106-18.051 35.122-20.887 11.158-2.634 20.443-.943 26.144 4.757 12.232 12.232 4.846 40.289-16.13 61.266-10.634 10.633-23.107 18.051-35.123 20.887zm64.64 1.201c-11.741 0-22.996-2.219-32.373-6.31 3.433-2.635 6.76-5.541 9.926-8.708 11.929-11.929 20.292-26.097 23.549-39.895.722-3.058 1.163-6.02 1.358-8.879 28.577.781 52.267 15.058 52.267 31.877 0 17.3-25.062 31.915-54.727 31.915zm-56.497-333.012c-2.757 0-5-2.243-5-5v-29.112c0-2.757 2.243-5 5-5h232.266c2.761 0 5-2.238 5-5s-2.239-5-5-5h-217.07v-14.943c0-2.757 2.243-5 5-5h236.071c2.757 0 5 2.243 5 5v19.943c0 2.762 2.239 5 5 5h10.195c2.757 0 5 2.243 5 5v16.304c-8.855-4.667-18.923-6.892-29.142-6.239-17.263 1.107-32.491 10.417-41.748 24.047zm300.572 33.547c-1.401 21.879-18.916 39.774-40.739 41.626-10.233.869-20.121-1.64-28.597-7.257-.832-.551-1.794-.832-2.762-.832-.684 0-1.37.14-2.015.424l-13.332 5.87 5.871-13.332c.686-1.558.532-3.357-.408-4.776-5.617-8.476-8.127-18.365-7.258-28.597 1.853-21.823 19.749-39.338 41.627-40.739 12.899-.838 25.505 3.918 34.601 13.013 9.095 9.095 13.838 21.707 13.012 34.6z" fill="#1d1f33" data-original="#2626bc" style="" class=""/></g></g><g><g><path d="m367.943 158.902c0 3.087-2.503 5.59-5.59 5.59s-5.59-2.503-5.59-5.59 2.503-5.59 5.59-5.59 5.59 2.503 5.59 5.59z" fill="#1d1f33" data-original="#2626bc" style="" class=""/></g><g><path d="m387.853 158.902c0 3.087-2.503 5.59-5.59 5.59s-5.59-2.503-5.59-5.59 2.503-5.59 5.59-5.59 5.59 2.503 5.59 5.59z" fill="#1d1f33" data-original="#2626bc" style="" class=""/></g><g><path d="m407.763 158.902c0 3.087-2.503 5.59-5.59 5.59s-5.59-2.503-5.59-5.59 2.503-5.59 5.59-5.59 5.59 2.503 5.59 5.59z" fill="#1d1f33" data-original="#2626bc" style="" class=""/></g></g></g></g></svg>
