<svg id="logobig" xmlns="http://www.w3.org/2000/svg" width="433.366" height="228.031" viewBox="0 0 433.366 228.031">
  <path id="clic_nclac" data-name="clic’nclac" d="M27.422,227.03a29.2,29.2,0,0,0,10.45-1.738,25.244,25.244,0,0,0,8.593-5.308h0l-8.9-9.331a10.963,10.963,0,0,1-4.213,2.737,16.719,16.719,0,0,1-5.832.928,13.14,13.14,0,0,1-4.9-.928,11.927,11.927,0,0,1-4.07-2.666,12.974,12.974,0,0,1-2.785-4.261,16.212,16.212,0,0,1-.024-11.4,12.806,12.806,0,0,1,2.785-4.261,12.006,12.006,0,0,1,4.094-2.69,13.14,13.14,0,0,1,4.9-.928,16.574,16.574,0,0,1,5.665.928,11.457,11.457,0,0,1,4.285,2.642h0l8.855-9.331a25.747,25.747,0,0,0-8.569-5.189,29.8,29.8,0,0,0-10.331-1.761,28.607,28.607,0,0,0-11.116,2.095,26.953,26.953,0,0,0-8.665,5.689A25.42,25.42,0,0,0,2,190.634,26.093,26.093,0,0,0,0,200.8,25.783,25.783,0,0,0,7.665,219.27a26.5,26.5,0,0,0,8.665,5.641A29.57,29.57,0,0,0,27.422,227.03Zm46.96-1.523V212.986H71.953a8.709,8.709,0,0,1-2.119-.214,2.5,2.5,0,0,1-1.333-.809,3.506,3.506,0,0,1-.69-1.666,16.482,16.482,0,0,1-.19-2.785h0V158.38H52.91V207.7a38.873,38.873,0,0,0,.786,8.546,11.154,11.154,0,0,0,2.833,5.475,11.449,11.449,0,0,0,5.618,2.928,40.222,40.222,0,0,0,9.141.857h3.094Zm12.873-54.939a10.257,10.257,0,0,0,3.642-.619,8.792,8.792,0,0,0,2.809-1.666,7.127,7.127,0,0,0,1.785-2.452,7.635,7.635,0,0,0,0-6.022,7.3,7.3,0,0,0-1.785-2.5,8.614,8.614,0,0,0-2.785-1.69,10.886,10.886,0,0,0-7.236,0,8.614,8.614,0,0,0-2.785,1.69,7.3,7.3,0,0,0-1.785,2.5,7.464,7.464,0,0,0-.619,3,7.067,7.067,0,0,0,.643,2.975,7.833,7.833,0,0,0,1.785,2.476,8.336,8.336,0,0,0,2.761,1.69A9.922,9.922,0,0,0,87.254,170.568Zm7.332,54.891V176.09H79.78v49.369Zm35.867,1.571a29.2,29.2,0,0,0,10.45-1.738,25.244,25.244,0,0,0,8.593-5.308h0l-8.9-9.331a10.963,10.963,0,0,1-4.213,2.737,16.719,16.719,0,0,1-5.832.928,13.14,13.14,0,0,1-4.9-.928,11.927,11.927,0,0,1-4.07-2.666,12.974,12.974,0,0,1-2.785-4.261,16.212,16.212,0,0,1-.024-11.4,12.806,12.806,0,0,1,2.785-4.261,12.006,12.006,0,0,1,4.094-2.69,13.14,13.14,0,0,1,4.9-.928,16.574,16.574,0,0,1,5.665.928,11.457,11.457,0,0,1,4.285,2.642h0l8.855-9.331a25.747,25.747,0,0,0-8.569-5.189,29.8,29.8,0,0,0-10.331-1.761,28.607,28.607,0,0,0-11.116,2.095,26.953,26.953,0,0,0-8.665,5.689,25.42,25.42,0,0,0-5.641,8.379,26.093,26.093,0,0,0-2,10.164A25.783,25.783,0,0,0,110.7,219.27a26.5,26.5,0,0,0,8.665,5.641A29.57,29.57,0,0,0,130.453,227.03Zm64.069-1.571v-24.8a17.221,17.221,0,0,1,.809-5.38,12.213,12.213,0,0,1,2.357-4.261,11.106,11.106,0,0,1,3.737-2.809,11.442,11.442,0,0,1,4.9-1.024,11.923,11.923,0,0,1,3.928.619,7.379,7.379,0,0,1,3.071,2.023,9.617,9.617,0,0,1,2,3.737,19.934,19.934,0,0,1,.714,5.76h0v26.136h14.806v-26.47a37.462,37.462,0,0,0-1.285-10.236,20.054,20.054,0,0,0-4-7.689,17.513,17.513,0,0,0-6.951-4.856,27.349,27.349,0,0,0-10.14-1.69,22.64,22.64,0,0,0-4.4.428,31.092,31.092,0,0,0-4.213,1.143,29.141,29.141,0,0,0-7.284,3.761h0l-.9-3.761H179.811v49.369Zm88.159,1.571a29.2,29.2,0,0,0,10.45-1.738,25.244,25.244,0,0,0,8.593-5.308h0l-8.9-9.331a10.963,10.963,0,0,1-4.213,2.737,16.719,16.719,0,0,1-5.832.928,13.14,13.14,0,0,1-4.9-.928,11.927,11.927,0,0,1-4.07-2.666,12.974,12.974,0,0,1-2.785-4.261,16.212,16.212,0,0,1-.024-11.4,12.806,12.806,0,0,1,2.785-4.261,12.006,12.006,0,0,1,4.094-2.69,13.14,13.14,0,0,1,4.9-.928,16.574,16.574,0,0,1,5.665.928,11.457,11.457,0,0,1,4.285,2.642h0l8.855-9.331a25.747,25.747,0,0,0-8.569-5.189,29.8,29.8,0,0,0-10.331-1.761,28.607,28.607,0,0,0-11.116,2.095,26.953,26.953,0,0,0-8.665,5.689,25.42,25.42,0,0,0-5.641,8.379,26.093,26.093,0,0,0-2,10.164,25.783,25.783,0,0,0,7.665,18.472,26.5,26.5,0,0,0,8.665,5.641A29.57,29.57,0,0,0,282.68,227.03Zm46.96-1.523V212.986h-2.428a8.709,8.709,0,0,1-2.119-.214,2.5,2.5,0,0,1-1.333-.809,3.507,3.507,0,0,1-.69-1.666,16.482,16.482,0,0,1-.19-2.785h0V158.38H308.169V207.7a38.873,38.873,0,0,0,.786,8.546,11.154,11.154,0,0,0,2.833,5.475,11.449,11.449,0,0,0,5.618,2.928,40.222,40.222,0,0,0,9.141.857h3.094Zm19.871,1.238a28.9,28.9,0,0,0,4.927-.333,31.607,31.607,0,0,0,4.88-1.143,34.217,34.217,0,0,0,4.618-1.857,28.02,28.02,0,0,0,4.142-2.476h0l1.047,4.523h11.9v-34.23a14.532,14.532,0,0,0-1.714-7.117,14.832,14.832,0,0,0-4.9-5.237,24.464,24.464,0,0,0-7.689-3.237,41.779,41.779,0,0,0-10.069-1.119,37.776,37.776,0,0,0-9.212,1.047,22.138,22.138,0,0,0-7.213,3.142,15.178,15.178,0,0,0-4.785,5.261,16.656,16.656,0,0,0-1.928,7.355h0l14.854-.048a2.88,2.88,0,0,1,.69-1.785,5.983,5.983,0,0,1,1.857-1.523,11.723,11.723,0,0,1,2.737-1.047,13.516,13.516,0,0,1,3.38-.4,12.33,12.33,0,0,1,6.665,1.571,4.877,4.877,0,0,1,2.571,4h0v3.333l-4.594-.1q-2.309-.048-4.4-.048a69.635,69.635,0,0,0-9.974.667,27.605,27.605,0,0,0-7.974,2.285,13.226,13.226,0,0,0-5.284,4.356,11.679,11.679,0,0,0-1.9,6.832,19.873,19.873,0,0,0,1.4,7.879,14.8,14.8,0,0,0,3.785,5.356,14.977,14.977,0,0,0,5.522,3.071A23.424,23.424,0,0,0,349.511,226.744Zm5.522-11.521a16.5,16.5,0,0,1-3.023-.262,7.84,7.84,0,0,1-2.452-.857,4.593,4.593,0,0,1-1.666-1.595,4.526,4.526,0,0,1-.619-2.428,3.114,3.114,0,0,1,.928-2.333,6.417,6.417,0,0,1,2.547-1.428,18.219,18.219,0,0,1,3.809-.738q2.19-.214,4.666-.214,2.285,0,3.928.048t3.071.1h0v4.618a6.537,6.537,0,0,1-1.761,2.047,12.045,12.045,0,0,1-2.714,1.619,17.419,17.419,0,0,1-3.261,1.047A16.082,16.082,0,0,1,355.033,215.223Zm59.29,11.807a29.2,29.2,0,0,0,10.45-1.738,25.244,25.244,0,0,0,8.593-5.308h0l-8.9-9.331a10.963,10.963,0,0,1-4.213,2.737,16.719,16.719,0,0,1-5.832.928,13.14,13.14,0,0,1-4.9-.928,11.927,11.927,0,0,1-4.07-2.666,12.974,12.974,0,0,1-2.785-4.261,16.212,16.212,0,0,1-.024-11.4,12.806,12.806,0,0,1,2.785-4.261,12.006,12.006,0,0,1,4.094-2.69,13.14,13.14,0,0,1,4.9-.928,16.574,16.574,0,0,1,5.665.928,11.457,11.457,0,0,1,4.285,2.642h0l8.855-9.331a25.747,25.747,0,0,0-8.569-5.189,29.8,29.8,0,0,0-10.331-1.761,28.607,28.607,0,0,0-11.116,2.095,26.953,26.953,0,0,0-8.665,5.689,25.42,25.42,0,0,0-5.641,8.379,26.093,26.093,0,0,0-2,10.164,25.783,25.783,0,0,0,7.665,18.472,26.5,26.5,0,0,0,8.665,5.641A29.57,29.57,0,0,0,414.323,227.03Z" transform="translate(0 1)" fill="#3d3d3d"/>
  <g id="Group-4" transform="translate(149)">
    <path id="Combined-Shape" d="M87.154,0A48.16,48.16,0,1,1,39.316,53.76h22.56a26.32,26.32,0,1,0,0-10.08H39.2A48.165,48.165,0,0,1,87.154,0Z" fill="#eac336" fill-rule="evenodd"/>
    <path id="Combined-Shape-2" data-name="Combined-Shape" d="M48.16,12.32A48.168,48.168,0,0,1,96,54.88H73.438a26.32,26.32,0,1,0,0,10.08H96.114A48.162,48.162,0,1,1,48.16,12.32Z" fill="#3d3d3d" fill-rule="evenodd"/>
    <path id="Combined-Shape-3" data-name="Combined-Shape" d="M87.038,96.32A48.168,48.168,0,0,1,39.2,53.76H61.759l.077.378a26.326,26.326,0,0,0,51.6-.377h21.44A48.168,48.168,0,0,1,87.038,96.32Zm0-96.32A47.949,47.949,0,0,1,109.6,5.6H64.479A47.949,47.949,0,0,1,87.038,0Z" fill="#eac336" fill-rule="evenodd"/>
  </g>
  <g id="clic_nclac-2" data-name="clic’nclac" transform="translate(152.942 156.286)">
    <path id="clic_nclac-3" data-name="clic’nclac" d="M162.416,182.612l5.311-12.96,5.4-13.177-4.857-.446-8.093-.744-3.071,10.047-5.165,16.9Z" transform="translate(-151.942 -155.286)" fill="#eac336"/>
  </g>
</svg>
